<svg width="200" height="60" viewBox="0 0 200 60" fill="none" xmlns="http://www.w3.org/2000/svg">
<rect x="0.5" y="0.5" width="199" height="59" rx="4.5" stroke="#F7941E"/>
<path d="M49.701 23.4H48.441V36H55.461V34.812H49.701V23.4ZM58.5252 30.24H64.1052V29.052H58.5252V24.588H64.5552V23.4H57.2652V36H64.6452V34.812H58.5252V30.24ZM76.7059 36L71.8639 23.4H70.5679L65.7259 36H67.0579L68.2279 32.904H74.2039L75.3739 36H76.7059ZM71.2159 24.966L73.7539 31.716H68.6779L71.2159 24.966ZM87.5038 36L84.4258 30.798C85.2178 30.564 85.8658 30.132 86.3698 29.466C86.8918 28.8 87.1438 28.026 87.1438 27.18C87.1438 26.136 86.7658 25.254 86.0278 24.516C85.2898 23.778 84.4078 23.4 83.3638 23.4H78.3238V36H79.5838V30.96H83.1118L86.0638 36H87.5038ZM83.3638 24.588C84.0658 24.588 84.6598 24.84 85.1458 25.344C85.6318 25.848 85.8838 26.46 85.8838 27.18C85.8838 27.882 85.6318 28.494 85.1458 29.016C84.6598 29.52 84.0658 29.772 83.3638 29.772H79.5838V24.588H83.3638ZM97.4101 33.66L90.3901 23.4H89.3101V36H90.5701V25.74L97.5901 36H98.6701V23.4H97.4101V33.66ZM115.998 23.4L111.804 30.42L107.61 23.4H106.044V36H107.304V25.308L111.714 32.688H111.894L116.304 25.308V36H117.564V23.4H115.998ZM130.863 34.326C132.123 33.048 132.753 31.518 132.753 29.7C132.753 27.882 132.123 26.352 130.863 25.092C129.603 23.814 128.055 23.184 126.237 23.184C124.419 23.184 122.871 23.814 121.611 25.092C120.351 26.352 119.721 27.882 119.721 29.7C119.721 31.518 120.351 33.048 121.611 34.326C122.871 35.586 124.419 36.216 126.237 36.216C128.055 36.216 129.603 35.586 130.863 34.326ZM122.493 33.462C121.485 32.436 120.981 31.176 120.981 29.7C120.981 28.224 121.485 26.982 122.493 25.956C123.501 24.93 124.743 24.408 126.237 24.408C127.731 24.408 128.973 24.93 129.981 25.956C130.989 26.982 131.493 28.224 131.493 29.7C131.493 31.176 130.989 32.436 129.981 33.462C128.973 34.488 127.731 34.992 126.237 34.992C124.743 34.992 123.501 34.488 122.493 33.462ZM144.088 36L141.01 30.798C141.802 30.564 142.45 30.132 142.954 29.466C143.476 28.8 143.728 28.026 143.728 27.18C143.728 26.136 143.35 25.254 142.612 24.516C141.874 23.778 140.992 23.4 139.948 23.4H134.908V36H136.168V30.96H139.696L142.648 36H144.088ZM139.948 24.588C140.65 24.588 141.244 24.84 141.73 25.344C142.216 25.848 142.468 26.46 142.468 27.18C142.468 27.882 142.216 28.494 141.73 29.016C141.244 29.52 140.65 29.772 139.948 29.772H136.168V24.588H139.948ZM147.154 30.24H152.734V29.052H147.154V24.588H153.184V23.4H145.894V36H153.274V34.812H147.154V30.24Z" fill="#F7941E"/>
</svg>
