<svg width="200" height="60" viewBox="0 0 200 60" fill="none" xmlns="http://www.w3.org/2000/svg">
<rect width="200" height="60" rx="5" fill="#F7941E"/>
<path d="M44.5031 24.4H37.3931V37H38.6531V31.42H44.2331V30.232H38.6531V25.588H44.5031V24.4ZM46.6568 37H47.9168V24.4H46.6568V37ZM58.9052 34.66L51.8852 24.4H50.8052V37H52.0652V26.74L59.0852 37H60.1652V24.4H58.9052V34.66ZM63.0396 24.4V37H67.8996C69.6096 37 71.0316 36.388 72.1476 35.182C73.2816 33.958 73.8396 32.464 73.8396 30.7C73.8396 28.936 73.2816 27.442 72.1476 26.236C71.0316 25.012 69.6096 24.4 67.8996 24.4H63.0396ZM64.2996 35.812V25.588H67.8996C69.2856 25.588 70.4016 26.074 71.2836 27.064C72.1656 28.054 72.6156 29.26 72.6156 30.7C72.6156 32.14 72.1656 33.346 71.2836 34.336C70.4016 35.326 69.2856 35.812 67.8996 35.812H64.2996ZM86.2367 31.006V32.194H91.2407C91.1147 33.292 90.6287 34.21 89.7827 34.93C88.9367 35.632 87.8027 35.992 86.3807 35.992C84.8147 35.992 83.5187 35.488 82.5287 34.462C81.5387 33.436 81.0347 32.194 81.0347 30.7C81.0347 29.206 81.5387 27.964 82.5287 26.938C83.5187 25.912 84.8147 25.408 86.3807 25.408C88.2527 25.408 89.9267 26.398 90.7187 27.928L91.8347 27.28C91.3127 26.344 90.5567 25.588 89.5847 25.03C88.6127 24.472 87.5507 24.184 86.3807 24.184C84.4727 24.184 82.8887 24.814 81.6467 26.074C80.4047 27.334 79.7747 28.882 79.7747 30.7C79.7747 32.518 80.4047 34.066 81.6467 35.326C82.8887 36.586 84.4727 37.216 86.3807 37.216C88.2527 37.216 89.7467 36.676 90.8627 35.614C91.9787 34.534 92.5367 33.22 92.5367 31.654V31.006H86.2367ZM94.6978 37H95.9578V24.4H94.6978V37ZM105.956 24.4H98.8463V37H100.106V31.42H105.686V30.232H100.106V25.588H105.956V24.4ZM107.03 24.4V25.588H110.9V37H112.16V25.588H116.03V24.4H107.03ZM130.431 34.66L123.411 24.4H122.331V37H123.591V26.74L130.611 37H131.691V24.4H130.431V34.66ZM144.987 35.326C146.247 34.048 146.877 32.518 146.877 30.7C146.877 28.882 146.247 27.352 144.987 26.092C143.727 24.814 142.179 24.184 140.361 24.184C138.543 24.184 136.995 24.814 135.735 26.092C134.475 27.352 133.845 28.882 133.845 30.7C133.845 32.518 134.475 34.048 135.735 35.326C136.995 36.586 138.543 37.216 140.361 37.216C142.179 37.216 143.727 36.586 144.987 35.326ZM136.617 34.462C135.609 33.436 135.105 32.176 135.105 30.7C135.105 29.224 135.609 27.982 136.617 26.956C137.625 25.93 138.867 25.408 140.361 25.408C141.855 25.408 143.097 25.93 144.105 26.956C145.113 27.982 145.617 29.224 145.617 30.7C145.617 32.176 145.113 33.436 144.105 34.462C143.097 35.488 141.855 35.992 140.361 35.992C138.867 35.992 137.625 35.488 136.617 34.462ZM152.753 37L156.047 26.056L159.341 37H160.853L164.507 24.4H163.175L160.061 35.29L156.785 24.4H155.309L152.033 35.29L148.919 24.4H147.587L151.241 37H152.753Z" fill="white"/>
</svg>
