<svg width="150" height="45" viewBox="0 0 150 45" fill="none" xmlns="http://www.w3.org/2000/svg">
<rect x="0.5" y="1.23334" width="149" height="42.5" rx="4.5" stroke="#F7941E"/>
<path d="M31.1976 22.706V23.894H36.2016C36.0756 24.992 35.5896 25.91 34.7436 26.63C33.8976 27.332 32.7636 27.692 31.3416 27.692C29.7756 27.692 28.4796 27.188 27.4896 26.162C26.4996 25.136 25.9956 23.894 25.9956 22.4C25.9956 20.906 26.4996 19.664 27.4896 18.638C28.4796 17.612 29.7756 17.108 31.3416 17.108C33.2136 17.108 34.8876 18.098 35.6796 19.628L36.7956 18.98C36.2736 18.044 35.5176 17.288 34.5456 16.73C33.5736 16.172 32.5116 15.884 31.3416 15.884C29.4336 15.884 27.8496 16.514 26.6076 17.774C25.3656 19.034 24.7356 20.582 24.7356 22.4C24.7356 24.218 25.3656 25.766 26.6076 27.026C27.8496 28.286 29.4336 28.916 31.3416 28.916C33.2136 28.916 34.7076 28.376 35.8236 27.314C36.9396 26.234 37.4976 24.92 37.4976 23.354V22.706H31.1976ZM39.6588 28.7H40.9188V16.1H39.6588V28.7ZM50.9172 16.1H43.8072V28.7H45.0672V23.12H50.6472V21.932H45.0672V17.288H50.9172V16.1ZM51.9909 16.1V17.288H55.8609V28.7H57.1209V17.288H60.9909V16.1H51.9909ZM74.4016 16.1H67.2916V28.7H68.5516V23.12H74.1316V21.932H68.5516V17.288H74.4016V16.1ZM76.5552 28.7H77.8152V16.1H76.5552V28.7ZM88.8037 26.36L81.7837 16.1H80.7037V28.7H81.9637V18.44L88.9837 28.7H90.0637V16.1H88.8037V26.36ZM92.938 16.1V28.7H97.798C99.508 28.7 100.93 28.088 102.046 26.882C103.18 25.658 103.738 24.164 103.738 22.4C103.738 20.636 103.18 19.142 102.046 17.936C100.93 16.712 99.508 16.1 97.798 16.1H92.938ZM94.198 27.512V17.288H97.798C99.184 17.288 100.3 17.774 101.182 18.764C102.064 19.754 102.514 20.96 102.514 22.4C102.514 23.84 102.064 25.046 101.182 26.036C100.3 27.026 99.184 27.512 97.798 27.512H94.198ZM107.153 22.94H112.733V21.752H107.153V17.288H113.183V16.1H105.893V28.7H113.273V27.512H107.153V22.94ZM124.618 28.7L121.54 23.498C122.332 23.264 122.98 22.832 123.484 22.166C124.006 21.5 124.258 20.726 124.258 19.88C124.258 18.836 123.88 17.954 123.142 17.216C122.404 16.478 121.522 16.1 120.478 16.1H115.438V28.7H116.698V23.66H120.226L123.178 28.7H124.618ZM120.478 17.288C121.18 17.288 121.774 17.54 122.26 18.044C122.746 18.548 122.998 19.16 122.998 19.88C122.998 20.582 122.746 21.194 122.26 21.716C121.774 22.22 121.18 22.472 120.478 22.472H116.698V17.288H120.478Z" fill="#F7941E"/>
</svg>
